<mxfile host="app.diagrams.net" modified="2024-05-09T22:59:19.583Z" agent="Mozilla/5.0 (Windows NT 10.0; Win64; x64) AppleWebKit/537.36 (KHTML, like Gecko) Chrome/123.0.0.0 Safari/537.36 OPR/109.0.0.0" etag="FkfR_TLlx9Dj1SlYUvde" version="24.2.8" type="github">
  <diagram id="R2lEEEUBdFMjLlhIrx00" name="Page-1">
    <mxGraphModel dx="1393" dy="766" grid="1" gridSize="10" guides="1" tooltips="1" connect="1" arrows="1" fold="1" page="1" pageScale="1" pageWidth="850" pageHeight="1100" math="0" shadow="0" extFonts="Permanent Marker^https://fonts.googleapis.com/css?family=Permanent+Marker">
      <root>
        <mxCell id="0" />
        <mxCell id="1" parent="0" />
        <mxCell id="EIh1-bXNQ1MOse5Rku8A-1" value="Veterinario" style="swimlane;childLayout=stackLayout;horizontal=1;startSize=50;horizontalStack=0;rounded=1;fontSize=14;fontStyle=0;strokeWidth=2;resizeParent=0;resizeLast=1;shadow=0;dashed=0;align=center;arcSize=4;whiteSpace=wrap;html=1;" vertex="1" parent="1">
          <mxGeometry x="80" y="243" width="160" height="120" as="geometry" />
        </mxCell>
        <mxCell id="EIh1-bXNQ1MOse5Rku8A-2" value="+Nombre&lt;br&gt;+Apellido&lt;br&gt;+Teléfono&lt;div&gt;+&lt;u&gt;Licencia&lt;/u&gt;&lt;/div&gt;" style="align=left;strokeColor=none;fillColor=none;spacingLeft=4;fontSize=12;verticalAlign=top;resizable=0;rotatable=0;part=1;html=1;" vertex="1" parent="EIh1-bXNQ1MOse5Rku8A-1">
          <mxGeometry y="50" width="160" height="70" as="geometry" />
        </mxCell>
        <mxCell id="EIh1-bXNQ1MOse5Rku8A-3" value="Medicamento" style="swimlane;childLayout=stackLayout;horizontal=1;startSize=50;horizontalStack=0;rounded=1;fontSize=14;fontStyle=0;strokeWidth=2;resizeParent=0;resizeLast=1;shadow=0;dashed=0;align=center;arcSize=4;whiteSpace=wrap;html=1;" vertex="1" parent="1">
          <mxGeometry x="370" y="80" width="160" height="120" as="geometry" />
        </mxCell>
        <mxCell id="EIh1-bXNQ1MOse5Rku8A-4" value="+Inventario&lt;br&gt;+Precio&lt;br&gt;+FechaVencimiento&lt;div&gt;+&lt;u&gt;Código&lt;/u&gt;&lt;/div&gt;" style="align=left;strokeColor=none;fillColor=none;spacingLeft=4;fontSize=12;verticalAlign=top;resizable=0;rotatable=0;part=1;html=1;" vertex="1" parent="EIh1-bXNQ1MOse5Rku8A-3">
          <mxGeometry y="50" width="160" height="70" as="geometry" />
        </mxCell>
        <mxCell id="EIh1-bXNQ1MOse5Rku8A-5" value="Dueño" style="swimlane;childLayout=stackLayout;horizontal=1;startSize=50;horizontalStack=0;rounded=1;fontSize=14;fontStyle=0;strokeWidth=2;resizeParent=0;resizeLast=1;shadow=0;dashed=0;align=center;arcSize=4;whiteSpace=wrap;html=1;" vertex="1" parent="1">
          <mxGeometry x="600" y="450" width="160" height="120" as="geometry" />
        </mxCell>
        <mxCell id="EIh1-bXNQ1MOse5Rku8A-6" value="+Attribute1&#xa;+Attribute2&#xa;+Attribute3" style="align=left;strokeColor=none;fillColor=none;spacingLeft=4;fontSize=12;verticalAlign=top;resizable=0;rotatable=0;part=1;html=1;" vertex="1" parent="EIh1-bXNQ1MOse5Rku8A-5">
          <mxGeometry y="50" width="160" height="70" as="geometry" />
        </mxCell>
        <mxCell id="EIh1-bXNQ1MOse5Rku8A-7" value="Mascota" style="swimlane;childLayout=stackLayout;horizontal=1;startSize=50;horizontalStack=0;rounded=1;fontSize=14;fontStyle=0;strokeWidth=2;resizeParent=0;resizeLast=1;shadow=0;dashed=0;align=center;arcSize=4;whiteSpace=wrap;html=1;" vertex="1" parent="1">
          <mxGeometry x="290" y="450" width="160" height="120" as="geometry" />
        </mxCell>
        <mxCell id="EIh1-bXNQ1MOse5Rku8A-8" value="+&lt;u&gt;Nombre&lt;/u&gt;&lt;br&gt;+Edad" style="align=left;strokeColor=none;fillColor=none;spacingLeft=4;fontSize=12;verticalAlign=top;resizable=0;rotatable=0;part=1;html=1;" vertex="1" parent="EIh1-bXNQ1MOse5Rku8A-7">
          <mxGeometry y="50" width="160" height="70" as="geometry" />
        </mxCell>
        <mxCell id="EIh1-bXNQ1MOse5Rku8A-21" style="rounded=0;orthogonalLoop=1;jettySize=auto;html=1;exitX=0.5;exitY=1;exitDx=0;exitDy=0;entryX=0.75;entryY=0;entryDx=0;entryDy=0;endArrow=none;endFill=0;" edge="1" parent="1" source="EIh1-bXNQ1MOse5Rku8A-16" target="EIh1-bXNQ1MOse5Rku8A-7">
          <mxGeometry relative="1" as="geometry" />
        </mxCell>
        <mxCell id="EIh1-bXNQ1MOse5Rku8A-22" style="rounded=0;orthogonalLoop=1;jettySize=auto;html=1;exitX=0;exitY=0.5;exitDx=0;exitDy=0;entryX=1;entryY=0.5;entryDx=0;entryDy=0;endArrow=none;endFill=0;" edge="1" parent="1" source="EIh1-bXNQ1MOse5Rku8A-16" target="EIh1-bXNQ1MOse5Rku8A-2">
          <mxGeometry relative="1" as="geometry" />
        </mxCell>
        <mxCell id="EIh1-bXNQ1MOse5Rku8A-23" style="rounded=0;orthogonalLoop=1;jettySize=auto;html=1;exitX=0.5;exitY=0;exitDx=0;exitDy=0;entryX=0.5;entryY=1;entryDx=0;entryDy=0;endArrow=none;endFill=0;" edge="1" parent="1" source="EIh1-bXNQ1MOse5Rku8A-16" target="EIh1-bXNQ1MOse5Rku8A-4">
          <mxGeometry relative="1" as="geometry" />
        </mxCell>
        <mxCell id="EIh1-bXNQ1MOse5Rku8A-30" style="rounded=0;orthogonalLoop=1;jettySize=auto;html=1;exitX=1;exitY=0.5;exitDx=0;exitDy=0;entryX=0;entryY=0.5;entryDx=0;entryDy=0;dashed=1;endArrow=none;endFill=0;" edge="1" parent="1" source="EIh1-bXNQ1MOse5Rku8A-16" target="EIh1-bXNQ1MOse5Rku8A-29">
          <mxGeometry relative="1" as="geometry" />
        </mxCell>
        <mxCell id="EIh1-bXNQ1MOse5Rku8A-16" value="" style="shape=rhombus;perimeter=rhombusPerimeter;whiteSpace=wrap;html=1;align=center;" vertex="1" parent="1">
          <mxGeometry x="370" y="290" width="120" height="60" as="geometry" />
        </mxCell>
        <mxCell id="EIh1-bXNQ1MOse5Rku8A-17" value="" style="endArrow=none;html=1;rounded=0;exitX=1;exitY=0.25;exitDx=0;exitDy=0;entryX=0;entryY=0.25;entryDx=0;entryDy=0;" edge="1" parent="1" source="EIh1-bXNQ1MOse5Rku8A-8" target="EIh1-bXNQ1MOse5Rku8A-6">
          <mxGeometry relative="1" as="geometry">
            <mxPoint x="490" y="600" as="sourcePoint" />
            <mxPoint x="650" y="600" as="targetPoint" />
          </mxGeometry>
        </mxCell>
        <mxCell id="EIh1-bXNQ1MOse5Rku8A-18" value="1,N" style="resizable=0;html=1;whiteSpace=wrap;align=left;verticalAlign=bottom;" connectable="0" vertex="1" parent="EIh1-bXNQ1MOse5Rku8A-17">
          <mxGeometry x="-1" relative="1" as="geometry" />
        </mxCell>
        <mxCell id="EIh1-bXNQ1MOse5Rku8A-19" value="1,1" style="resizable=0;html=1;whiteSpace=wrap;align=right;verticalAlign=bottom;" connectable="0" vertex="1" parent="EIh1-bXNQ1MOse5Rku8A-17">
          <mxGeometry x="1" relative="1" as="geometry" />
        </mxCell>
        <mxCell id="EIh1-bXNQ1MOse5Rku8A-20" value="Tiene" style="text;html=1;align=center;verticalAlign=middle;resizable=0;points=[];autosize=1;strokeColor=none;fillColor=none;" vertex="1" parent="1">
          <mxGeometry x="490" y="490" width="50" height="30" as="geometry" />
        </mxCell>
        <mxCell id="EIh1-bXNQ1MOse5Rku8A-25" value="1,1" style="text;html=1;align=center;verticalAlign=middle;resizable=0;points=[];autosize=1;strokeColor=none;fillColor=none;" vertex="1" parent="1">
          <mxGeometry x="230" y="328" width="40" height="30" as="geometry" />
        </mxCell>
        <mxCell id="EIh1-bXNQ1MOse5Rku8A-26" value="1,N" style="text;html=1;align=center;verticalAlign=middle;resizable=0;points=[];autosize=1;strokeColor=none;fillColor=none;" vertex="1" parent="1">
          <mxGeometry x="400" y="198" width="40" height="30" as="geometry" />
        </mxCell>
        <mxCell id="EIh1-bXNQ1MOse5Rku8A-27" value="1,1" style="text;html=1;align=center;verticalAlign=middle;resizable=0;points=[];autosize=1;strokeColor=none;fillColor=none;" vertex="1" parent="1">
          <mxGeometry x="380" y="408" width="40" height="30" as="geometry" />
        </mxCell>
        <mxCell id="EIh1-bXNQ1MOse5Rku8A-28" value="Atiende" style="swimlane;childLayout=stackLayout;horizontal=1;startSize=50;horizontalStack=0;rounded=1;fontSize=14;fontStyle=0;strokeWidth=2;resizeParent=0;resizeLast=1;shadow=0;dashed=0;align=center;arcSize=4;whiteSpace=wrap;html=1;" vertex="1" parent="1">
          <mxGeometry x="610" y="230" width="160" height="120" as="geometry" />
        </mxCell>
        <mxCell id="EIh1-bXNQ1MOse5Rku8A-29" value="+Turno&lt;div&gt;+Costo&lt;/div&gt;" style="align=left;strokeColor=none;fillColor=none;spacingLeft=4;fontSize=12;verticalAlign=top;resizable=0;rotatable=0;part=1;html=1;" vertex="1" parent="EIh1-bXNQ1MOse5Rku8A-28">
          <mxGeometry y="50" width="160" height="70" as="geometry" />
        </mxCell>
      </root>
    </mxGraphModel>
  </diagram>
</mxfile>
